# xmcd CD database file
#
# Track frame offsets:
#	150
#	30674
#	66389
#	101673
#	139011
#	156806
#	175484
#	196380
#	218927
#	245997
#
# Disc length: 3685 seconds
#
# Revision: 1
# Processed by: cddbd v1.5.2PL0 Copyright (c) Steve Scherf et al.
# Submitted via: CDex 1.51
#
DISCID=990e630a
DTITLE=The Joe Pitts Band - One Night Only Live
DYEAR=2008
DGENRE=Blues
TTITLE0=Blue Light Rain
TTITLE1=Blackout
TTITLE2=Outskirts Of Town
TTITLE3=Step Into The Dark
TTITLE4=Tales Of Brave Ulysses
TTITLE5=Just A Matter Of Time
TTITLE6=Lonesome Boy From Yesterday
TTITLE7=Zambified
TTITLE8=Mr Big
TTITLE9=VT Inst #6 Jam
EXTD=YEAR: 2008
EXTT0=
EXTT1=
EXTT2=
EXTT3=
EXTT4=
EXTT5=
EXTT6=
EXTT7=
EXTT8=
EXTT9=
PLAYORDER=
